<?xml version="1.0" encoding="windows-1252"?>
<!-- Generator: Adobe Illustrator 19.0.0, SVG Export Plug-In . SVG Version: 6.00 Build 0)  -->
<svg version="1.1" id="Capa_1" xmlns="http://www.w3.org/2000/svg" xmlns:xlink="http://www.w3.org/1999/xlink" x="0px" y="0px" viewBox="0 0 390.246 390.246" style="enable-background:new 0 0 390.246 390.246;" xml:space="preserve">
<polygon style="fill:#ED664C;" points="380.221,84.286 317.421,147.186 316.221,145.986 243.122,72.886 306.021,10.086 "/>
<polygon style="fill:#FDC75B;" points="317.421,147.186 122.322,342.686 47.622,267.986 243.122,72.886 316.221,145.986 "/>
<polygon style="fill:#ED664C;" points="122.322,342.686 122.322,342.686 10.022,380.286 47.622,267.986 47.622,267.986 "/>
<path d="M313.121,2.986c-3.9-3.9-10.2-3.9-14.1,0l-62.9,62.8l-195,194.6c-1.3,1.1-2.4,2.6-3,4.4l-37.6,112.3  c-1.2,3.6-0.3,7.6,2.4,10.2c1.9,1.9,4.5,2.9,7.1,2.9c1.1,0,2.1-0.2,3.2-0.5l112.3-37.5c1.8-0.6,3.3-1.6,4.4-3l194.6-195l62.8-63  c3.9-3.9,3.9-10.2,0-14.1L313.121,2.986z M25.822,364.486l26.1-78l51.9,51.9L25.822,364.486z M122.322,328.486l-60.5-60.5l181.4-181  l60.1,60.2L122.322,328.486z M317.421,133.086l-60.1-60.1l48.7-48.8l60,60L317.421,133.086z"/>
<g>
</g>
<g>
</g>
<g>
</g>
<g>
</g>
<g>
</g>
<g>
</g>
<g>
</g>
<g>
</g>
<g>
</g>
<g>
</g>
<g>
</g>
<g>
</g>
<g>
</g>
<g>
</g>
<g>
</g>
</svg>